<?xml version="1.0" encoding="UTF-8"?>
<!DOCTYPE svg PUBLIC "-//W3C//DTD SVG 1.1//EN" "http://www.w3.org/Graphics/SVG/1.1/DTD/svg11.dtd">
<!-- Creator: CorelDRAW 2020 (64-Bit) -->
<svg xmlns="http://www.w3.org/2000/svg" xml:space="preserve" width="500px" height="90px" version="1.1" style="shape-rendering:geometricPrecision; text-rendering:geometricPrecision; image-rendering:optimizeQuality; fill-rule:evenodd; clip-rule:evenodd"
viewBox="0 0 495.85 89.23"
 xmlns:xlink="http://www.w3.org/1999/xlink"
 xmlns:xodm="http://www.corel.com/coreldraw/odm/2003">
 <defs>
  <style type="text/css">
   <![CDATA[
    .fil0 {fill:#FEFEFE;fill-rule:nonzero}
   ]]>
  </style>
 </defs>
 <g id="Слой_x0020_1">
  <metadata id="CorelCorpID_0Corel-Layer"/>
  <g>
   <path class="fil0" d="M6.5 40.88l14.33 -34.03 14.34 34.03 5.24 0 -17.33 -40.53 -4.21 0 -17.33 40.53 4.96 0zm69.46 0l0 -4.61 -19.86 0 0 -35.69 -4.9 0 0 40.3 24.76 0zm16.84 0l0 -40.3 -4.89 0 0 40.3 4.89 0zm50.81 -40.3l-4.61 0 0 31.78 -25.16 -31.78 -3.91 0 0 40.3 4.6 0 0 -31.67 25.16 31.67 3.92 0 0 -40.3zm15.75 40.3l14.33 -34.03 14.34 34.03 5.24 0 -17.33 -40.53 -4.21 0 -17.33 40.53 4.96 0zm79.04 -10.31c0,3.92 -3.45,6.28 -7.88,6.28 -3.63,0 -7.66,-1.79 -9.96,-4.78l-2.82 3.34c0.97,1.84 2.64,3.34 5.12,4.43 2.48,1.1 5.01,1.61 7.6,1.61 3.74,0 6.85,-0.98 9.33,-2.99 2.53,-2.02 3.8,-4.66 3.8,-7.95 0,-13.76 -19.69,-10.01 -19.69,-19.97 0,-3.63 2.82,-5.93 7.25,-5.93 3.28,0 5.99,1.09 8.18,3.28l2.64 -3.69c-2.3,-2.53 -6.5,-4.2 -11.11,-4.2 -3.74,0 -6.68,1.04 -8.86,3.05 -2.19,2.02 -3.29,4.49 -3.29,7.49 0,13.35 19.69,10.19 19.69,20.03zm18 -25.39l22.74 0 0 -4.6 -22.74 0 0 4.6zm0 35.7l23.31 0 0 -4.61 -23.31 0 0 4.61zm-0.04 -18.08l22.34 0 0 -4.61 -22.3 0 -0.04 4.61zm60.58 -22.22l-17.68 19.28 18.25 21.02 6.28 0 -18.89 -21.36 17.97 -18.94 -5.93 0zm-18.66 40.3l0 -40.3 -4.89 0 0 40.3 4.89 0zm35.67 0l14.34 -34.03 14.33 34.03 5.24 0 -17.33 -40.53 -4.2 0 -17.33 40.53 4.95 0zm49.37 -35.7l0 35.7 4.89 0 0 -35.7 14.11 0 0 -4.6 -33.11 0 0 4.6 14.11 0zm47.01 25.39c0,3.92 -3.45,6.28 -7.89,6.28 -3.63,0 -7.66,-1.79 -9.96,-4.78l-2.82 3.34c0.98,1.84 2.65,3.34 5.12,4.43 2.48,1.1 5.01,1.61 7.6,1.61 3.75,0 6.86,-0.98 9.33,-2.99 2.53,-2.02 3.8,-4.66 3.8,-7.95 0,-13.76 -19.69,-10.01 -19.69,-19.97 0,-3.63 2.82,-5.93 7.26,-5.93 3.28,0 5.98,1.09 8.17,3.28l2.65 -3.69c-2.3,-2.53 -6.51,-4.2 -11.11,-4.2 -3.75,0 -6.68,1.04 -8.87,3.05 -2.19,2.02 -3.28,4.49 -3.28,7.49 0,13.35 19.69,10.19 19.69,20.03zm41.54 -29.99l-17.68 19.28 18.26 21.02 6.27 0 -18.88 -21.36 17.96 -18.94 -5.93 0zm-18.65 40.3l0 -40.3 -4.9 0 0 40.3 4.9 0zm42.63 0l0 -40.3 -4.89 0 0 40.3 4.89 0zm-494.05 48.35l9.49 -25.58 -1.77 -0.66 -9.52 25.58 1.8 0.66zm28.68 -9.73c0.89,0.08 1.89,0.11 3,0.11 2.32,0 4.09,-0.6 5.32,-1.83 1.26,-1.23 1.89,-2.71 1.89,-4.46 0,-1.8 -0.57,-3.26 -1.75,-4.43 -1.14,-1.17 -3.03,-1.77 -5.66,-1.77 -0.43,0 -1.34,0 -2.68,0.03 -1.35,0.03 -2.18,0.03 -2.55,0.03l0 20.01 2.43 0 0 -7.69zm3.03 -10.09c3.09,0 4.6,1.45 4.6,3.88 0,2.52 -1.77,4.04 -4.71,4.04 -0.86,0 -1.83,-0.06 -2.92,-0.15l0 -7.72c1.26,-0.02 2.26,-0.05 3.03,-0.05zm13.14 7.77c0,3 0.98,5.49 2.89,7.41 1.95,1.91 4.38,2.88 7.32,2.88 2.92,0 5.35,-0.97 7.29,-2.91 1.94,-1.97 2.92,-4.43 2.92,-7.38 0,-3 -0.98,-5.49 -2.92,-7.4 -1.92,-1.92 -4.35,-2.89 -7.29,-2.89 -2.94,0 -5.4,1 -7.32,2.97 -1.91,1.98 -2.89,4.41 -2.89,7.32zm2.58 0c0,-2.31 0.71,-4.23 2.17,-5.74 1.46,-1.52 3.26,-2.26 5.46,-2.26 2.14,0 3.97,0.77 5.43,2.28 1.46,1.52 2.2,3.41 2.2,5.72 0,2.29 -0.71,4.2 -2.14,5.72 -1.4,1.51 -3.23,2.29 -5.49,2.29 -2.14,0 -3.97,-0.78 -5.43,-2.29 -1.46,-1.54 -2.2,-3.46 -2.2,-5.72zm28.23 2l3.26 0 6.15 8.01 2.97 0 -6.66 -8.46c1.2,-0.32 2.23,-0.95 3.06,-1.95 0.86,-1 1.29,-2.26 1.29,-3.71 0,-3.98 -2.38,-5.95 -7.12,-5.95 -0.14,0 -0.97,0 -2.49,0.03 -1.51,0.03 -2.46,0.03 -2.89,0.03l0 20.01 2.43 0 0 -8.01zm2.81 -9.77c3.11,0 4.68,1.23 4.68,3.68 0,1.15 -0.45,2.06 -1.37,2.78 -0.88,0.68 -1.94,1.03 -3.17,1.03l-2.95 0 0 -7.44c1.26,-0.02 2.2,-0.05 2.81,-0.05zm19.77 0.05l0 17.73 2.43 0 0 -17.73 7 0 0 -2.28 -16.43 0 0 2.28 7 0zm18.69 9.72l3.26 0 6.14 8.01 2.98 0 -6.66 -8.46c1.2,-0.32 2.23,-0.95 3.05,-1.95 0.86,-1 1.29,-2.26 1.29,-3.71 0,-3.98 -2.37,-5.95 -7.12,-5.95 -0.14,0 -0.97,0 -2.48,0.03 -1.52,0.03 -2.46,0.03 -2.89,0.03l0 20.01 2.43 0 0 -8.01zm2.8 -9.77c3.12,0 4.69,1.23 4.69,3.68 0,1.15 -0.46,2.06 -1.37,2.78 -0.89,0.68 -1.95,1.03 -3.18,1.03l-2.94 0 0 -7.44c1.26,-0.02 2.2,-0.05 2.8,-0.05zm16.23 17.78l2.54 -6.06 9.12 0 2.58 6.06 2.6 0 -8.61 -20.13 -2.08 0 -8.61 20.13 2.46 0zm10.72 -8.35l-7.2 0 3.6 -8.55 3.6 8.55zm16.09 8.35l0 -20.01 -2.43 0 0 20.01 2.43 0zm14.4 -17.73l0 17.73 2.43 0 0 -17.73 7 0 0 -2.28 -16.44 0 0 2.28 7.01 0zm26.11 17.73l2.55 -6.06 9.11 0 2.58 6.06 2.6 0 -8.61 -20.13 -2.08 0 -8.61 20.13 2.46 0zm10.72 -8.35l-7.2 0 3.6 -8.55 3.6 8.55zm15.52 0.34l3.26 0 6.14 8.01 2.98 0 -6.67 -8.46c1.21,-0.32 2.23,-0.95 3.06,-1.95 0.86,-1 1.29,-2.26 1.29,-3.71 0,-3.98 -2.37,-5.95 -7.12,-5.95 -0.14,0 -0.97,0 -2.49,0.03 -1.51,0.03 -2.45,0.03 -2.88,0.03l0 20.01 2.43 0 0 -8.01zm2.8 -9.77c3.11,0 4.69,1.23 4.69,3.68 0,1.15 -0.46,2.06 -1.38,2.78 -0.88,0.68 -1.94,1.03 -3.17,1.03l-2.94 0 0 -7.44c1.25,-0.02 2.2,-0.05 2.8,-0.05zm19.77 0.05l0 17.73 2.43 0 0 -17.73 7.01 0 0 -2.28 -16.44 0 0 2.28 7 0zm19.26 17.73l0 -20.01 -2.43 0 0 20.01 2.43 0zm18.81 -5.12c0,1.94 -1.72,3.12 -3.92,3.12 -1.8,0 -3.8,-0.89 -4.95,-2.38l-1.4 1.66c0.49,0.92 1.32,1.66 2.55,2.2 1.23,0.55 2.48,0.8 3.77,0.8 1.86,0 3.4,-0.48 4.63,-1.48 1.26,-1 1.89,-2.32 1.89,-3.95 0,-6.83 -9.78,-4.97 -9.78,-9.92 0,-1.8 1.4,-2.94 3.6,-2.94 1.63,0 2.98,0.54 4.06,1.63l1.32 -1.83c-1.14,-1.26 -3.23,-2.09 -5.52,-2.09 -1.86,0 -3.31,0.52 -4.4,1.52 -1.09,1 -1.63,2.23 -1.63,3.71 0,6.63 9.78,5.06 9.78,9.95zm14.83 -12.61l0 17.73 2.43 0 0 -17.73 7 0 0 -2.28 -16.44 0 0 2.28 7.01 0z"/>
  </g>
 </g>
</svg>
