<svg xmlns="http://www.w3.org/2000/svg" xmlns:xlink="http://www.w3.org/1999/xlink" width="499" height="85" viewBox="0 0 499 84.96">
  <path fill="#FFFFFF" d="M19.66 4.58l-15.41 34.41 -4.25 0 17.67 -38.66 4.04 0 17.67 38.66 -4.31 0 -15.41 -34.41zm-17.72 80.38l-1.85 0 8.51 -24.31 1.86 0 -8.52 24.31zm46.02 -84.63l4.08 0 0 35.13 21.65 0 0 3.53 -25.73 0 0 -38.66zm34.7 0l4.08 0 0 38.66 -4.08 0 0 -38.66zm51.16 0l0 38.66 -3.37 0 -24.86 -31.37 0 31.37 -4.08 0 0 -38.66 3.37 0 24.91 31.37 0 -31.37 4.03 0zm28.24 4.25l-15.41 34.41 -4.26 0 17.68 -38.66 4.03 0 17.67 38.66 -4.3 0 -15.41 -34.41zm9.28 20.77l-9.28 -20.77 9.28 20.77zm46.31 13.97c-2.87,0 -5.62,-0.46 -8.26,-1.38 -2.63,-0.92 -4.66,-2.13 -6.1,-3.64l1.6 -3.15c1.4,1.4 3.26,2.53 5.58,3.4 2.32,0.86 4.71,1.29 7.18,1.29 3.46,0 6.06,-0.63 7.79,-1.9 1.73,-1.27 2.59,-2.92 2.59,-4.94 0,-1.55 -0.46,-2.78 -1.4,-3.7 -0.94,-0.93 -2.09,-1.63 -3.46,-2.13 -1.36,-0.5 -3.25,-1.04 -5.68,-1.63 -2.91,-0.74 -5.23,-1.45 -6.96,-2.13 -1.73,-0.68 -3.22,-1.72 -4.45,-3.12 -1.23,-1.4 -1.85,-3.29 -1.85,-5.69 0,-1.95 0.52,-3.72 1.55,-5.33 1.03,-1.6 2.61,-2.88 4.75,-3.83 2.13,-0.96 4.78,-1.44 7.95,-1.44 2.21,0 4.37,0.3 6.49,0.91 2.12,0.61 3.95,1.45 5.49,2.51l-1.38 3.26c-1.62,-1.06 -3.35,-1.87 -5.19,-2.4 -1.84,-0.53 -3.64,-0.8 -5.41,-0.8 -3.39,0 -5.94,0.65 -7.65,1.96 -1.71,1.31 -2.57,2.99 -2.57,5.05 0,1.55 0.47,2.79 1.41,3.73 0.94,0.94 2.12,1.66 3.54,2.16 1.41,0.49 3.32,1.04 5.71,1.63 2.84,0.69 5.13,1.38 6.88,2.07 1.75,0.68 3.23,1.71 4.44,3.09 1.22,1.38 1.83,3.25 1.83,5.6 0,1.96 -0.53,3.73 -1.58,5.33 -1.05,1.61 -2.66,2.88 -4.83,3.82 -2.17,0.93 -4.84,1.4 -8.01,1.4l0 0zm51.99 -38.99l0 3.54 0 -3.54zm24.59 20.49l-7.89 8.01 0 10.16 -4.09 0 0 -38.66 4.09 0 0 23.36 22.7 -23.36 4.69 0 -16.73 17.51 17.89 21.15 -4.86 0 -15.8 -18.17zm41.44 -16.24l-15.41 34.41 -4.25 0 17.68 -38.66 4.03 0 17.67 38.66 -4.31 0 -15.41 -34.41zm33.88 -0.71l-13.59 0 0 -3.54 31.26 0 0 3.54 -13.59 0 0 35.12 -4.08 0 0 -35.12zm36.41 35.45c-2.87,0 -5.62,-0.46 -8.26,-1.38 -2.63,-0.92 -4.66,-2.13 -6.1,-3.64l1.6 -3.15c1.4,1.4 3.26,2.53 5.58,3.4 2.32,0.86 4.71,1.29 7.18,1.29 3.46,0 6.06,-0.63 7.79,-1.9 1.73,-1.27 2.59,-2.92 2.59,-4.94 0,-1.55 -0.47,-2.78 -1.41,-3.7 -0.93,-0.93 -2.09,-1.63 -3.45,-2.13 -1.36,-0.5 -3.26,-1.04 -5.69,-1.63 -2.9,-0.74 -5.22,-1.45 -6.96,-2.13 -1.73,-0.68 -3.21,-1.72 -4.44,-3.12 -1.23,-1.4 -1.85,-3.29 -1.85,-5.69 0,-1.95 0.51,-3.72 1.54,-5.33 1.04,-1.6 2.62,-2.88 4.75,-3.83 2.14,-0.96 4.79,-1.44 7.96,-1.44 2.21,0 4.37,0.3 6.49,0.91 2.11,0.61 3.95,1.45 5.49,2.51l-1.38 3.26c-1.62,-1.06 -3.35,-1.87 -5.19,-2.4 -1.84,-0.53 -3.64,-0.8 -5.41,-0.8 -3.39,0 -5.94,0.65 -7.65,1.96 -1.71,1.31 -2.57,2.99 -2.57,5.05 0,1.55 0.47,2.79 1.41,3.73 0.94,0.94 2.12,1.66 3.53,2.16 1.42,0.49 3.33,1.04 5.72,1.63 2.83,0.69 5.13,1.38 6.88,2.07 1.75,0.68 3.23,1.71 4.44,3.09 1.22,1.38 1.82,3.25 1.82,5.6 0,1.96 -0.52,3.73 -1.57,5.33 -1.05,1.61 -2.66,2.88 -4.83,3.82 -2.17,0.93 -4.84,1.4 -8.01,1.4l0 0zm37.46 -18.5l-7.9 8.01 0 10.16 -4.08 0 0 -38.66 4.08 0 0 23.36 22.7 -23.36 4.7 0 -16.74 17.51 17.9 21.15 -4.86 0 -15.8 -18.17zm40.12 4.81l0 13.36 -4.04 0 0 -13.36 -15.46 -25.3 4.36 0 13.26 21.71 13.25 -21.71 4.09 0 -15.46 25.3zm-448.37 39.07c2.55,0 4.55,0.61 6,1.83 1.45,1.22 2.17,2.9 2.17,5.03 0,2.13 -0.72,3.8 -2.17,5.01 -1.45,1.21 -3.45,1.82 -6,1.82l-5.37 0 0 6.31 -2.11 0 0 -20 7.48 0zm-0.06 11.83c1.98,0 3.5,-0.43 4.54,-1.3 1.05,-0.87 1.58,-2.09 1.58,-3.67 0,-1.62 -0.53,-2.86 -1.58,-3.73 -1.04,-0.87 -2.56,-1.3 -4.54,-1.3l-5.31 0 0 10 5.31 0zm25.57 8.34c-1.98,0 -3.78,-0.44 -5.38,-1.33 -1.61,-0.88 -2.87,-2.1 -3.78,-3.64 -0.9,-1.54 -1.35,-3.28 -1.35,-5.2 0,-1.92 0.45,-3.66 1.35,-5.2 0.91,-1.54 2.17,-2.76 3.78,-3.64 1.6,-0.89 3.4,-1.33 5.38,-1.33 1.98,0 3.77,0.44 5.36,1.32 1.59,0.87 2.84,2.09 3.75,3.64 0.92,1.55 1.37,3.29 1.37,5.21 0,1.92 -0.45,3.66 -1.37,5.21 -0.91,1.56 -2.16,2.77 -3.75,3.65 -1.59,0.87 -3.38,1.31 -5.36,1.31zm0 -1.88c1.58,0 3.01,-0.36 4.29,-1.08 1.27,-0.71 2.27,-1.7 3,-2.97 0.72,-1.26 1.08,-2.68 1.08,-4.24 0,-1.56 -0.36,-2.98 -1.08,-4.24 -0.73,-1.27 -1.73,-2.26 -3,-2.97 -1.28,-0.72 -2.71,-1.07 -4.29,-1.07 -1.58,0 -3.01,0.35 -4.3,1.07 -1.28,0.71 -2.29,1.7 -3.03,2.97 -0.73,1.26 -1.1,2.68 -1.1,4.24 0,1.56 0.37,2.98 1.1,4.24 0.74,1.27 1.75,2.26 3.03,2.97 1.29,0.72 2.72,1.08 4.3,1.08zm32.62 1.71l-4.57 -6.43c-0.51,0.06 -1.04,0.09 -1.6,0.09l-5.37 0 0 6.34 -2.11 0 0 -20 7.48 0c2.56,0 4.56,0.61 6,1.83 1.45,1.22 2.17,2.9 2.17,5.03 0,1.56 -0.39,2.88 -1.18,3.96 -0.79,1.07 -1.92,1.85 -3.39,2.32l4.89 6.86 -2.32 0 0 0zm-6.22 -8.14c1.98,0 3.49,-0.44 4.54,-1.32 1.05,-0.87 1.57,-2.1 1.57,-3.68 0,-1.62 -0.52,-2.86 -1.57,-3.73 -1.05,-0.87 -2.56,-1.3 -4.54,-1.3l-5.32 0 0 10.03 5.32 0zm20.56 -10.03l-7.02 0 0 -1.83 16.17 0 0 1.83 -7.03 0 0 18.17 -2.12 0 0 -18.17zm29.91 18.17l-4.57 -6.43c-0.51,0.06 -1.04,0.09 -1.6,0.09l-5.37 0 0 6.34 -2.11 0 0 -20 7.48 0c2.56,0 4.56,0.61 6,1.83 1.45,1.22 2.17,2.9 2.17,5.03 0,1.56 -0.39,2.88 -1.18,3.96 -0.79,1.07 -1.92,1.85 -3.39,2.32l4.89 6.86 -2.32 0 0 0zm-6.22 -8.14c1.98,0 3.49,-0.44 4.54,-1.32 1.05,-0.87 1.57,-2.1 1.57,-3.68 0,-1.62 -0.52,-2.86 -1.57,-3.73 -1.05,-0.87 -2.56,-1.3 -4.54,-1.3l-5.32 0 0 10.03 5.32 0zm29.51 2.8l-11.14 0 -2.4 5.34 -2.2 0 9.14 -20 2.08 0 9.14 20 -2.22 0 -2.4 -5.34zm-0.77 -1.72l-4.8 -10.74 -4.8 10.74 9.6 0zm12.45 -12.94l2.11 0 0 20 -2.11 0 0 -20zm16.26 1.83l-7.03 0 0 -1.83 16.17 0 0 1.83 -7.03 0 0 18.17 -2.11 0 0 -18.17zm40.02 12.83l-11.14 0 -2.4 5.34 -2.2 0 9.14 -20 2.08 0 9.15 20 -2.23 0 -2.4 -5.34zm-0.77 -1.72l-4.8 -10.74 -4.8 10.74 9.6 0zm26.11 7.06l-4.57 -6.43c-0.52,0.06 -1.05,0.09 -1.6,0.09l-5.37 0 0 6.34 -2.12 0 0 -20 7.49 0c2.55,0 4.55,0.61 5.99,1.83 1.45,1.22 2.18,2.9 2.18,5.03 0,1.56 -0.4,2.88 -1.19,3.96 -0.79,1.07 -1.92,1.85 -3.38,2.32l4.88 6.86 -2.31 0 0 0zm-6.23 -8.14c1.98,0 3.49,-0.44 4.54,-1.32 1.05,-0.87 1.57,-2.1 1.57,-3.68 0,-1.62 -0.52,-2.86 -1.57,-3.73 -1.05,-0.87 -2.56,-1.3 -4.54,-1.3l-5.31 0 0 10.03 5.31 0zm20.57 -10.03l-7.03 0 0 -1.83 16.17 0 0 1.83 -7.03 0 0 18.17 -2.11 0 0 -18.17zm16.25 -1.83l2.12 0 0 20 -2.12 0 0 -20zm17.89 20.17c-1.49,0 -2.91,-0.24 -4.28,-0.71 -1.36,-0.48 -2.41,-1.11 -3.15,-1.89l0.83 -1.63c0.72,0.73 1.68,1.31 2.88,1.76 1.2,0.45 2.44,0.67 3.72,0.67 1.79,0 3.13,-0.33 4.02,-0.98 0.9,-0.66 1.35,-1.51 1.35,-2.56 0,-0.8 -0.25,-1.44 -0.73,-1.92 -0.49,-0.47 -1.08,-0.84 -1.79,-1.1 -0.7,-0.25 -1.68,-0.53 -2.94,-0.84 -1.5,-0.38 -2.71,-0.75 -3.6,-1.1 -0.9,-0.35 -1.66,-0.89 -2.3,-1.61 -0.64,-0.73 -0.96,-1.71 -0.96,-2.94 0,-1.01 0.27,-1.93 0.8,-2.76 0.54,-0.83 1.36,-1.49 2.46,-1.99 1.1,-0.49 2.48,-0.74 4.11,-0.74 1.15,0 2.27,0.16 3.36,0.47 1.1,0.32 2.04,0.75 2.84,1.3l-0.71 1.69c-0.84,-0.56 -1.73,-0.97 -2.69,-1.25 -0.95,-0.27 -1.88,-0.41 -2.8,-0.41 -1.75,0 -3.07,0.34 -3.95,1.01 -0.89,0.68 -1.33,1.55 -1.33,2.62 0,0.8 0.24,1.44 0.73,1.93 0.48,0.48 1.09,0.85 1.83,1.11 0.73,0.26 1.71,0.54 2.95,0.84 1.47,0.37 2.65,0.72 3.56,1.08 0.9,0.35 1.67,0.88 2.3,1.59 0.63,0.72 0.94,1.69 0.94,2.9 0,1.01 -0.27,1.93 -0.81,2.76 -0.55,0.83 -1.38,1.49 -2.5,1.97 -1.13,0.49 -2.51,0.73 -4.14,0.73l0 0zm19.39 -18.34l-7.02 0 0 -1.83 16.16 0 0 1.83 -7.02 0 0 18.17 -2.12 0 0 -18.17z"/>
  <rect fill="#FFFFFF" x="243.14" y="0.41" width="26.5" height="3.46"/>
  <rect fill="#FFFFFF" x="243.14" y="17.6" width="26.5" height="3.46"/>
  <rect fill="#FFFFFF" x="243.14" y="35.48" width="26.5" height="3.46"/>
</svg>
