<svg width="473" height="85" viewBox="0 0 473 85" fill="none" xmlns="http://www.w3.org/2000/svg">
<path d="M6.49032 38.943L20.1375 6.53458L33.7942 38.943H38.7845L22.2803 0.344308H18.2709L1.76667 38.943H6.49032V38.943ZM72.6405 38.943V34.5527H53.7268V0.563349H49.0603V38.943H72.6405ZM88.678 38.943V0.563349H84.021V38.943H88.678ZM137.067 0.563349H132.677V30.829L108.715 0.563349H104.992V38.943H109.373V8.78212L133.334 38.943H137.067V0.563349V0.563349ZM152.066 38.943L165.714 6.53458L179.37 38.943H184.361L167.856 0.344308H163.847L147.343 38.943H152.066V38.943ZM227.34 29.1243C227.34 32.8575 224.054 35.105 219.836 35.105C216.379 35.105 212.541 33.4003 210.35 30.5528L207.665 33.7337C208.588 35.486 210.179 36.9145 212.541 37.9526C214.902 39.0001 217.312 39.4858 219.778 39.4858C223.34 39.4858 226.302 38.5525 228.664 36.6383C231.073 34.7146 232.283 32.2004 232.283 29.0672C232.283 15.9628 213.531 19.5341 213.531 10.0487C213.531 6.59172 216.217 4.40131 220.436 4.40131C223.559 4.40131 226.14 5.43937 228.226 7.52502L230.74 4.01085C228.55 1.60141 224.55 0.0109863 220.159 0.0109863C216.598 0.0109863 213.798 1.00143 211.722 2.91565C209.636 4.8394 208.588 7.1917 208.588 10.0487C208.588 22.7626 227.34 19.7532 227.34 29.1243V29.1243ZM244.482 4.94415H266.139V0.563349H244.482V4.94415ZM244.482 38.943H266.682V34.5527H244.482V38.943ZM244.444 21.7245H265.72V17.3342H244.482L244.444 21.7245V21.7245ZM302.138 0.563349L285.3 18.9246L302.68 38.943H308.661L290.671 18.6008L307.785 0.563349H302.138V0.563349ZM284.367 38.943V0.563349H279.71V38.943H284.367ZM318.337 38.943L331.994 6.53458L345.641 38.943H350.631L334.127 0.344308H330.127L313.623 38.943H318.337ZM365.354 4.94415V38.943H370.011V4.94415H383.449V0.563349H351.917V4.94415H365.354ZM410.124 29.1243C410.124 32.8575 406.839 35.105 402.61 35.105C399.153 35.105 395.315 33.4003 393.125 30.5528L390.439 33.7337C391.373 35.486 392.963 36.9145 395.315 37.9526C397.677 39.0001 400.087 39.4858 402.553 39.4858C406.125 39.4858 409.086 38.5525 411.439 36.6383C413.848 34.7146 415.058 32.2004 415.058 29.0672C415.058 15.9628 396.306 19.5341 396.306 10.0487C396.306 6.59172 398.991 4.40131 403.22 4.40131C406.344 4.40131 408.915 5.43937 411.001 7.52502L413.524 4.01085C411.334 1.60141 407.324 0.0109863 402.944 0.0109863C399.372 0.0109863 396.582 1.00143 394.496 2.91565C392.411 4.8394 391.373 7.1917 391.373 10.0487C391.373 22.7626 410.124 19.7532 410.124 29.1243V29.1243ZM449.685 0.563349L432.847 18.9246L450.237 38.943H456.209L438.228 18.6008L455.332 0.563349H449.685V0.563349ZM431.924 38.943V0.563349H427.257V38.943H431.924ZM472.522 38.943V0.563349H467.865V38.943H472.522ZM2.01428 84.9891L11.0521 60.628L9.36641 59.9994L0.300049 84.3605L2.01428 84.9891V84.9891ZM29.3276 75.7227C30.1752 75.7989 31.1276 75.8275 32.1847 75.8275C34.3941 75.8275 36.0798 75.2561 37.2512 74.0847C38.4511 72.9133 39.0511 71.5038 39.0511 69.8372C39.0511 68.123 38.5083 66.7325 37.3845 65.6183C36.2988 64.5041 34.4989 63.9326 31.9942 63.9326C31.5847 63.9326 30.7181 63.9326 29.4419 63.9612C28.1563 63.9898 27.3658 63.9898 27.0134 63.9898V83.0463H29.3276V75.7227V75.7227ZM32.2133 66.1135C35.156 66.1135 36.5941 67.4944 36.5941 69.8086C36.5941 72.2086 34.9084 73.6561 32.1085 73.6561C31.2895 73.6561 30.3657 73.599 29.3276 73.5133V66.1611C30.5276 66.1421 31.48 66.1135 32.2133 66.1135ZM44.7271 73.5133C44.7271 76.3703 45.6604 78.7417 47.4794 80.5702C49.3365 82.3892 51.6507 83.3129 54.4506 83.3129C57.2315 83.3129 59.5457 82.3892 61.3932 80.5416C63.2408 78.6655 64.1741 76.3227 64.1741 73.5133C64.1741 70.6562 63.2408 68.2849 61.3932 66.4659C59.5647 64.6374 57.2505 63.7136 54.4506 63.7136C51.6507 63.7136 49.3079 64.666 47.4794 66.5421C45.6604 68.4277 44.7271 70.7419 44.7271 73.5133V73.5133ZM47.1842 73.5133C47.1842 71.3133 47.8604 69.4848 49.2508 68.0468C50.6412 66.5992 52.3554 65.8945 54.4506 65.8945C56.4886 65.8945 58.2314 66.6278 59.6219 68.0658C61.0123 69.5134 61.717 71.3133 61.717 73.5133C61.717 75.6942 61.0409 77.5131 59.679 78.9607C58.3457 80.3988 56.6029 81.1416 54.4506 81.1416C52.4126 81.1416 50.6698 80.3988 49.2794 78.9607C47.8889 77.4941 47.1842 75.6656 47.1842 73.5133V73.5133ZM74.069 75.418H77.1737L83.0306 83.0463H85.8591L79.5164 74.9894C80.6593 74.6847 81.6402 74.0847 82.4306 73.1323C83.2496 72.18 83.6592 70.98 83.6592 69.5991C83.6592 65.8088 81.3926 63.9326 76.8784 63.9326C76.7451 63.9326 75.9546 63.9326 74.5071 63.9612C73.069 63.9898 72.1643 63.9898 71.7548 63.9898V83.0463H74.069V75.418V75.418ZM76.7451 66.1135C79.7069 66.1135 81.2021 67.2849 81.2021 69.6182C81.2021 70.7134 80.7735 71.58 79.8974 72.2657C79.0593 72.9133 78.0498 73.2466 76.8784 73.2466H74.069V66.1611C75.269 66.1421 76.1642 66.1135 76.7451 66.1135V66.1135ZM95.573 66.1611V83.0463H97.8872V66.1611H104.554V63.9898H88.9066V66.1611H95.573V66.1611ZM113.372 75.418H116.477L122.325 83.0463H125.163L118.82 74.9894C119.963 74.6847 120.944 74.0847 121.725 73.1323C122.544 72.18 122.953 70.98 122.953 69.5991C122.953 65.8088 120.696 63.9326 116.172 63.9326C116.039 63.9326 115.249 63.9326 113.811 63.9612C112.363 63.9898 111.468 63.9898 111.058 63.9898V83.0463H113.372V75.418V75.418ZM116.039 66.1135C119.01 66.1135 120.506 67.2849 120.506 69.6182C120.506 70.7134 120.067 71.58 119.201 72.2657C118.353 72.9133 117.344 73.2466 116.172 73.2466H113.372V66.1611C114.572 66.1421 115.468 66.1135 116.039 66.1135V66.1135ZM131.496 83.0463L133.915 77.275H142.6L145.057 83.0463H147.533L139.333 63.8755H137.353L129.153 83.0463H131.496V83.0463ZM141.705 75.0942H134.848L138.276 66.9516L141.705 75.0942ZM157.028 83.0463V63.9898H154.714V83.0463H157.028ZM170.742 66.1611V83.0463H173.056V66.1611H179.723V63.9898H164.066V66.1611H170.742ZM195.608 83.0463L198.036 77.275H206.712L209.169 83.0463H211.645L203.446 63.8755H201.465L193.265 83.0463H195.608V83.0463ZM205.817 75.0942H198.96L202.388 66.9516L205.817 75.0942ZM220.597 75.418H223.702L229.549 83.0463H232.387L226.035 74.9894C227.188 74.6847 228.159 74.0847 228.95 73.1323C229.769 72.18 230.178 70.98 230.178 69.5991C230.178 65.8088 227.921 63.9326 223.397 63.9326C223.264 63.9326 222.474 63.9326 221.026 63.9612C219.588 63.9898 218.693 63.9898 218.283 63.9898V83.0463H220.597V75.418V75.418ZM223.264 66.1135C226.226 66.1135 227.73 67.2849 227.73 69.6182C227.73 70.7134 227.292 71.58 226.416 72.2657C225.578 72.9133 224.569 73.2466 223.397 73.2466H220.597V66.1611C221.788 66.1421 222.693 66.1135 223.264 66.1135V66.1135ZM242.092 66.1611V83.0463H244.406V66.1611H251.082V63.9898H235.425V66.1611H242.092V66.1611ZM260.434 83.0463V63.9898H258.12V83.0463H260.434ZM278.348 78.1703C278.348 80.0178 276.71 81.1416 274.615 81.1416C272.9 81.1416 270.996 80.294 269.901 78.875L268.567 80.4559C269.034 81.3321 269.824 82.0368 270.996 82.5511C272.167 83.0749 273.358 83.3129 274.586 83.3129C276.357 83.3129 277.824 82.8558 278.995 81.9035C280.195 80.9511 280.795 79.694 280.795 78.1417C280.795 71.6371 271.481 73.4085 271.481 68.6944C271.481 66.9802 272.815 65.8945 274.91 65.8945C276.462 65.8945 277.748 66.4087 278.776 67.4468L280.034 65.704C278.948 64.5041 276.957 63.7136 274.777 63.7136C273.005 63.7136 271.624 64.2088 270.586 65.1612C269.548 66.1135 269.034 67.2849 269.034 68.6944C269.034 75.0085 278.348 73.5133 278.348 78.1703V78.1703ZM292.471 66.1611V83.0463H294.785V66.1611H301.452V63.9898H285.795V66.1611H292.471Z" fill="#FEFEFE"/>
</svg>
